<?xml version="1.0" encoding="UTF-8" standalone="no"?><svg xmlns="http://www.w3.org/2000/svg" xmlns:xlink="http://www.w3.org/1999/xlink" contentScriptType="application/ecmascript" contentStyleType="text/css" height="515px" preserveAspectRatio="none" style="width:374px;height:515px;" version="1.1" viewBox="0 0 374 515" width="374px" zoomAndPan="magnify"><defs><filter height="300%" id="f65hvhjw8cxfm" width="300%" x="-1" y="-1"><feGaussianBlur result="blurOut" stdDeviation="2.0"/><feColorMatrix in="blurOut" result="blurOut2" type="matrix" values="0 0 0 0 0 0 0 0 0 0 0 0 0 0 0 0 0 0 .4 0"/><feOffset dx="4.0" dy="4.0" in="blurOut2" result="blurOut3"/><feBlend in="SourceGraphic" in2="blurOut3" mode="normal"/></filter></defs><g><!--MD5=[c3414cc7e7047bbfc82532c89c181086]
cluster Evidence--><polygon fill="#FFFFFF" filter="url(#f65hvhjw8cxfm)" points="22,24,90,24,97,46.4883,352,46.4883,352,503,22,503,22,24" style="stroke: #000000; stroke-width: 1.5;"/><line style="stroke: #000000; stroke-width: 1.5;" x1="22" x2="97" y1="46.4883" y2="46.4883"/><text fill="#000000" font-family="sans-serif" font-size="14" font-weight="bold" lengthAdjust="spacingAndGlyphs" textLength="62" x="26" y="39.5352">Evidence</text><!--MD5=[f1fcc6330a74976c699b6b4d98a4ddaf]
class Evidence.DuplicateVoteEvidence--><rect fill="#FEFECE" filter="url(#f65hvhjw8cxfm)" height="203.4609" id="Evidence.DuplicateVoteEvidence" style="stroke: #A80036; stroke-width: 1.5;" width="297" x="38.5" y="284"/><ellipse cx="117.25" cy="300" fill="#7FFFD4" rx="11" ry="11" style="stroke: #A80036; stroke-width: 1.0;"/><path d="M116.4834,301.063 Q114.6323,300.3574 113.9766,299.5813 Q113.3208,298.8052 113.3208,297.4937 Q113.3208,295.8086 114.3999,294.8457 Q115.479,293.8828 117.3633,293.8828 Q118.2183,293.8828 119.0732,294.0779 Q119.9282,294.2729 120.7666,294.6548 L120.7666,297.0454 Q119.978,296.4893 119.1646,296.1987 Q118.3511,295.9082 117.5542,295.9082 Q116.666,295.9082 116.1929,296.2651 Q115.7197,296.6221 115.7197,297.2861 Q115.7197,297.8008 116.0642,298.137 Q116.4087,298.4731 117.5044,298.8799 L118.5586,299.2783 Q120.0527,299.8262 120.7583,300.731 Q121.4639,301.6357 121.4639,303.0137 Q121.4639,304.8896 120.3557,305.8152 Q119.2476,306.7407 117.0063,306.7407 Q116.085,306.7407 115.1594,306.5208 Q114.2339,306.3008 113.3706,305.8691 L113.3706,303.3374 Q114.3501,304.0347 115.2673,304.375 Q116.1846,304.7153 117.0811,304.7153 Q117.9858,304.7153 118.4839,304.3044 Q118.9819,303.8936 118.9819,303.1548 Q118.9819,302.5986 118.6499,302.1794 Q118.3179,301.7603 117.687,301.5195 Z "/><text fill="#000000" font-family="sans-serif" font-size="12" lengthAdjust="spacingAndGlyphs" textLength="131" x="137.75" y="304.5352">DuplicateVoteEvidence</text><line style="stroke: #A80036; stroke-width: 1.5;" x1="39.5" x2="334.5" y1="316" y2="316"/><ellipse cx="49.5" cy="327" fill="none" rx="3" ry="3" style="stroke: #038048; stroke-width: 1.0;"/><text fill="#000000" font-family="sans-serif" font-size="11" lengthAdjust="spacingAndGlyphs" textLength="119" x="58.5" y="330.6348">PubKey crypto.PubKey</text><ellipse cx="49.5" cy="339.9551" fill="none" rx="3" ry="3" style="stroke: #038048; stroke-width: 1.0;"/><text fill="#000000" font-family="sans-serif" font-size="11" lengthAdjust="spacingAndGlyphs" textLength="64" x="58.5" y="343.5898">VoteA *Vote</text><ellipse cx="49.5" cy="352.9102" fill="none" rx="3" ry="3" style="stroke: #038048; stroke-width: 1.0;"/><text fill="#000000" font-family="sans-serif" font-size="11" lengthAdjust="spacingAndGlyphs" textLength="62" x="58.5" y="356.5449">VoteB *Vote</text><line style="stroke: #A80036; stroke-width: 1.5;" x1="39.5" x2="334.5" y1="362.8652" y2="362.8652"/><ellipse cx="49.5" cy="373.8652" fill="#84BE84" rx="3" ry="3" style="stroke: #038048; stroke-width: 1.0;"/><text fill="#000000" font-family="sans-serif" font-size="11" lengthAdjust="spacingAndGlyphs" textLength="75" x="58.5" y="377.5">String() string</text><ellipse cx="49.5" cy="386.8203" fill="#84BE84" rx="3" ry="3" style="stroke: #038048; stroke-width: 1.0;"/><text fill="#000000" font-family="sans-serif" font-size="11" lengthAdjust="spacingAndGlyphs" textLength="74" x="58.5" y="390.4551">Height() int64</text><ellipse cx="49.5" cy="399.7754" fill="#84BE84" rx="3" ry="3" style="stroke: #038048; stroke-width: 1.0;"/><text fill="#000000" font-family="sans-serif" font-size="11" lengthAdjust="spacingAndGlyphs" textLength="89" x="58.5" y="403.4102">Time() time.Time</text><ellipse cx="49.5" cy="412.7305" fill="#84BE84" rx="3" ry="3" style="stroke: #038048; stroke-width: 1.0;"/><text fill="#000000" font-family="sans-serif" font-size="11" lengthAdjust="spacingAndGlyphs" textLength="87" x="58.5" y="416.3652">Address() []byte</text><ellipse cx="49.5" cy="425.6855" fill="#84BE84" rx="3" ry="3" style="stroke: #038048; stroke-width: 1.0;"/><text fill="#000000" font-family="sans-serif" font-size="11" lengthAdjust="spacingAndGlyphs" textLength="70" x="58.5" y="429.3203">Bytes() []byte</text><ellipse cx="49.5" cy="438.6406" fill="#84BE84" rx="3" ry="3" style="stroke: #038048; stroke-width: 1.0;"/><text fill="#000000" font-family="sans-serif" font-size="11" lengthAdjust="spacingAndGlyphs" textLength="69" x="58.5" y="442.2754">Hash() []byte</text><ellipse cx="49.5" cy="451.5957" fill="#84BE84" rx="3" ry="3" style="stroke: #038048; stroke-width: 1.0;"/><text fill="#000000" font-family="sans-serif" font-size="11" lengthAdjust="spacingAndGlyphs" textLength="271" x="58.5" y="455.2305">Verify(chainID string, pubKey crypto.PubKey) error</text><ellipse cx="49.5" cy="464.5508" fill="#84BE84" rx="3" ry="3" style="stroke: #038048; stroke-width: 1.0;"/><text fill="#000000" font-family="sans-serif" font-size="11" lengthAdjust="spacingAndGlyphs" textLength="126" x="58.5" y="468.1855">Equal(ev Evidence) bool</text><ellipse cx="49.5" cy="477.5059" fill="#84BE84" rx="3" ry="3" style="stroke: #038048; stroke-width: 1.0;"/><text fill="#000000" font-family="sans-serif" font-size="11" lengthAdjust="spacingAndGlyphs" textLength="108" x="58.5" y="481.1406">ValidateBasic() error</text><!--MD5=[240c751b649d55f86ecb3af1277ec83b]
class Evidence.Evidence--><rect fill="#FEFECE" filter="url(#f65hvhjw8cxfm)" height="164.5957" id="Evidence.Evidence" style="stroke: #A80036; stroke-width: 1.5;" width="297" x="38.5" y="59"/><ellipse cx="157.25" cy="75" fill="#B4A7E5" rx="11" ry="11" style="stroke: #A80036; stroke-width: 1.0;"/><path d="M153.6777,71.2651 L153.6777,69.1069 L161.0571,69.1069 L161.0571,71.2651 L158.5918,71.2651 L158.5918,79.3418 L161.0571,79.3418 L161.0571,81.5 L153.6777,81.5 L153.6777,79.3418 L156.1431,79.3418 L156.1431,71.2651 Z "/><text fill="#000000" font-family="sans-serif" font-size="12" font-style="italic" lengthAdjust="spacingAndGlyphs" textLength="51" x="177.75" y="79.5352">Evidence</text><line style="stroke: #A80036; stroke-width: 1.5;" x1="39.5" x2="334.5" y1="91" y2="91"/><line style="stroke: #A80036; stroke-width: 1.5;" x1="39.5" x2="334.5" y1="99" y2="99"/><ellipse cx="49.5" cy="110" fill="#84BE84" rx="3" ry="3" style="stroke: #038048; stroke-width: 1.0;"/><text fill="#000000" font-family="sans-serif" font-size="11" lengthAdjust="spacingAndGlyphs" textLength="74" x="58.5" y="113.6348">Height() int64</text><ellipse cx="49.5" cy="122.9551" fill="#84BE84" rx="3" ry="3" style="stroke: #038048; stroke-width: 1.0;"/><text fill="#000000" font-family="sans-serif" font-size="11" lengthAdjust="spacingAndGlyphs" textLength="89" x="58.5" y="126.5898">Time() time.Time</text><ellipse cx="49.5" cy="135.9102" fill="#84BE84" rx="3" ry="3" style="stroke: #038048; stroke-width: 1.0;"/><text fill="#000000" font-family="sans-serif" font-size="11" lengthAdjust="spacingAndGlyphs" textLength="87" x="58.5" y="139.5449">Address() []byte</text><ellipse cx="49.5" cy="148.8652" fill="#84BE84" rx="3" ry="3" style="stroke: #038048; stroke-width: 1.0;"/><text fill="#000000" font-family="sans-serif" font-size="11" lengthAdjust="spacingAndGlyphs" textLength="70" x="58.5" y="152.5">Bytes() []byte</text><ellipse cx="49.5" cy="161.8203" fill="#84BE84" rx="3" ry="3" style="stroke: #038048; stroke-width: 1.0;"/><text fill="#000000" font-family="sans-serif" font-size="11" lengthAdjust="spacingAndGlyphs" textLength="69" x="58.5" y="165.4551">Hash() []byte</text><ellipse cx="49.5" cy="174.7754" fill="#84BE84" rx="3" ry="3" style="stroke: #038048; stroke-width: 1.0;"/><text fill="#000000" font-family="sans-serif" font-size="11" lengthAdjust="spacingAndGlyphs" textLength="271" x="58.5" y="178.4102">Verify(chainID string, pubKey crypto.PubKey) error</text><ellipse cx="49.5" cy="187.7305" fill="#84BE84" rx="3" ry="3" style="stroke: #038048; stroke-width: 1.0;"/><text fill="#000000" font-family="sans-serif" font-size="11" lengthAdjust="spacingAndGlyphs" textLength="114" x="58.5" y="191.3652">Equal( Evidence) bool</text><ellipse cx="49.5" cy="200.6855" fill="#84BE84" rx="3" ry="3" style="stroke: #038048; stroke-width: 1.0;"/><text fill="#000000" font-family="sans-serif" font-size="11" lengthAdjust="spacingAndGlyphs" textLength="108" x="58.5" y="204.3203">ValidateBasic() error</text><ellipse cx="49.5" cy="213.6406" fill="#84BE84" rx="3" ry="3" style="stroke: #038048; stroke-width: 1.0;"/><text fill="#000000" font-family="sans-serif" font-size="11" lengthAdjust="spacingAndGlyphs" textLength="75" x="58.5" y="217.2754">String() string</text><!--MD5=[d74ae95aec2afedaa20c471b30c21b18]
reverse link Evidence.Evidence to Evidence.DuplicateVoteEvidence--><path d="M187,244.34 C187,257.44 187,270.85 187,283.94 " fill="none" id="Evidence.Evidence&lt;-Evidence.DuplicateVoteEvidence" style="stroke: #A80036; stroke-width: 1.0;"/><polygon fill="none" points="180,244.09,187,224.09,194,244.09,180,244.09" style="stroke: #A80036; stroke-width: 1.0;"/><text fill="#000000" font-family="sans-serif" font-size="13" lengthAdjust="spacingAndGlyphs" textLength="74" x="110.1672" y="273.1527">implements</text><!--MD5=[fcc52290e4f07ef9bf53a985d2077736]
@startuml
namespace Evidence {
    class DuplicateVoteEvidence << (S,Aquamarine) >> {
        + PubKey crypto.PubKey
        + VoteA *Vote
        + VoteB *Vote

        + String() string
        + Height() int64
        + Time() time.Time
        + Address() []byte
        + Bytes() []byte
        + Hash() []byte
        + Verify(chainID string, pubKey crypto.PubKey) error
        + Equal(ev Evidence) bool
        + ValidateBasic() error

    }

    interface Evidence  {
        + Height() int64
        + Time() time.Time
        + Address() []byte
        + Bytes() []byte
        + Hash() []byte
        + Verify(chainID string, pubKey crypto.PubKey) error
        + Equal( Evidence) bool
        + ValidateBasic() error
        + String() string

    }

}

"Evidence.Evidence" <|- - "implements""Evidence.DuplicateVoteEvidence"

@enduml

PlantUML version 1.2019.13(Wed Dec 11 01:18:29 CST 2019)
(GPL source distribution)
Java Runtime: Java(TM) SE Runtime Environment
JVM: Java HotSpot(TM) 64-Bit Server VM
Java Version: 13.0.1+9
Operating System: Mac OS X
Default Encoding: UTF-8
Language: en
Country: CN
--></g></svg>