<?xml version="1.0" encoding="UTF-8" standalone="no"?><svg xmlns="http://www.w3.org/2000/svg" xmlns:xlink="http://www.w3.org/1999/xlink" contentScriptType="application/ecmascript" contentStyleType="text/css" height="373px" preserveAspectRatio="none" style="width:716px;height:373px;" version="1.1" viewBox="0 0 716 373" width="716px" zoomAndPan="magnify"><defs><filter height="300%" id="f7c04rgjvcxml" width="300%" x="-1" y="-1"><feGaussianBlur result="blurOut" stdDeviation="2.0"/><feColorMatrix in="blurOut" result="blurOut2" type="matrix" values="0 0 0 0 0 0 0 0 0 0 0 0 0 0 0 0 0 0 .4 0"/><feOffset dx="4.0" dy="4.0" in="blurOut2" result="blurOut3"/><feBlend in="SourceGraphic" in2="blurOut3" mode="normal"/></filter></defs><g><!--MD5=[404edef25d4d8bd117836a7d797c13f2]
cluster params--><polygon fill="#FFFFFF" filter="url(#f7c04rgjvcxml)" points="22,24,81,24,88,46.4883,694,46.4883,694,361,22,361,22,24" style="stroke: #000000; stroke-width: 1.5;"/><line style="stroke: #000000; stroke-width: 1.5;" x1="22" x2="88" y1="46.4883" y2="46.4883"/><text fill="#000000" font-family="sans-serif" font-size="14" font-weight="bold" lengthAdjust="spacingAndGlyphs" textLength="53" x="26" y="39.5352">params</text><!--MD5=[30dba544cd313fb72c474ecff0ce941d]
class params.ConsensusParams--><rect fill="#FEFECE" filter="url(#f7c04rgjvcxml)" height="138.6855" id="params.ConsensusParams" style="stroke: #A80036; stroke-width: 1.5;" width="360" x="249" y="206"/><ellipse cx="372.75" cy="222" fill="#7FFFD4" rx="11" ry="11" style="stroke: #A80036; stroke-width: 1.0;"/><path d="M371.9834,223.063 Q370.1323,222.3574 369.4766,221.5813 Q368.8208,220.8052 368.8208,219.4937 Q368.8208,217.8086 369.8999,216.8457 Q370.979,215.8828 372.8633,215.8828 Q373.7183,215.8828 374.5732,216.0779 Q375.4282,216.2729 376.2666,216.6548 L376.2666,219.0454 Q375.478,218.4893 374.6646,218.1987 Q373.8511,217.9082 373.0542,217.9082 Q372.166,217.9082 371.6929,218.2651 Q371.2197,218.6221 371.2197,219.2861 Q371.2197,219.8008 371.5642,220.137 Q371.9087,220.4731 373.0044,220.8799 L374.0586,221.2783 Q375.5527,221.8262 376.2583,222.731 Q376.9639,223.6357 376.9639,225.0137 Q376.9639,226.8896 375.8557,227.8152 Q374.7476,228.7407 372.5063,228.7407 Q371.585,228.7407 370.6594,228.5208 Q369.7339,228.3008 368.8706,227.8691 L368.8706,225.3374 Q369.8501,226.0347 370.7673,226.375 Q371.6846,226.7153 372.5811,226.7153 Q373.4858,226.7153 373.9839,226.3044 Q374.4819,225.8936 374.4819,225.1548 Q374.4819,224.5986 374.1499,224.1794 Q373.8179,223.7603 373.187,223.5195 Z "/><text fill="#000000" font-family="sans-serif" font-size="12" lengthAdjust="spacingAndGlyphs" textLength="104" x="393.25" y="226.5352">ConsensusParams</text><line style="stroke: #A80036; stroke-width: 1.5;" x1="250" x2="608" y1="238" y2="238"/><ellipse cx="260" cy="249" fill="none" rx="3" ry="3" style="stroke: #038048; stroke-width: 1.0;"/><text fill="#000000" font-family="sans-serif" font-size="11" lengthAdjust="spacingAndGlyphs" textLength="98" x="269" y="252.6348">Block BlockParams</text><ellipse cx="260" cy="261.9551" fill="none" rx="3" ry="3" style="stroke: #038048; stroke-width: 1.0;"/><text fill="#000000" font-family="sans-serif" font-size="11" lengthAdjust="spacingAndGlyphs" textLength="136" x="269" y="265.5898">Evidence EvidenceParams</text><ellipse cx="260" cy="274.9102" fill="none" rx="3" ry="3" style="stroke: #038048; stroke-width: 1.0;"/><text fill="#000000" font-family="sans-serif" font-size="11" lengthAdjust="spacingAndGlyphs" textLength="138" x="269" y="278.5449">Validator ValidatorParams</text><line style="stroke: #A80036; stroke-width: 1.5;" x1="250" x2="608" y1="284.8652" y2="284.8652"/><ellipse cx="260" cy="295.8652" fill="#84BE84" rx="3" ry="3" style="stroke: #038048; stroke-width: 1.0;"/><text fill="#000000" font-family="sans-serif" font-size="11" lengthAdjust="spacingAndGlyphs" textLength="81" x="269" y="299.5">Validate() error</text><ellipse cx="260" cy="308.8203" fill="#84BE84" rx="3" ry="3" style="stroke: #038048; stroke-width: 1.0;"/><text fill="#000000" font-family="sans-serif" font-size="11" lengthAdjust="spacingAndGlyphs" textLength="69" x="269" y="312.4551">Hash() []byte</text><ellipse cx="260" cy="321.7754" fill="#84BE84" rx="3" ry="3" style="stroke: #038048; stroke-width: 1.0;"/><text fill="#000000" font-family="sans-serif" font-size="11" lengthAdjust="spacingAndGlyphs" textLength="224" x="269" y="325.4102">Equals(params2 *ConsensusParams) bool</text><ellipse cx="260" cy="334.7305" fill="#84BE84" rx="3" ry="3" style="stroke: #038048; stroke-width: 1.0;"/><text fill="#000000" font-family="sans-serif" font-size="11" lengthAdjust="spacingAndGlyphs" textLength="334" x="269" y="338.3652">Update(params2 *types.ConsensusParams) ConsensusParams</text><!--MD5=[1fa990f5490c81ed3f91f871e9b7db87]
class params.BlockParams--><rect fill="#FEFECE" filter="url(#f7c04rgjvcxml)" height="86.8652" id="params.BlockParams" style="stroke: #A80036; stroke-width: 1.5;" width="118" x="560" y="59"/><ellipse cx="580.85" cy="75" fill="#7FFFD4" rx="11" ry="11" style="stroke: #A80036; stroke-width: 1.0;"/><path d="M580.0834,76.063 Q578.2323,75.3574 577.5766,74.5813 Q576.9208,73.8052 576.9208,72.4937 Q576.9208,70.8086 577.9999,69.8457 Q579.079,68.8828 580.9633,68.8828 Q581.8183,68.8828 582.6732,69.0779 Q583.5282,69.2729 584.3666,69.6548 L584.3666,72.0454 Q583.578,71.4893 582.7646,71.1987 Q581.9511,70.9082 581.1542,70.9082 Q580.266,70.9082 579.7929,71.2651 Q579.3197,71.6221 579.3197,72.2861 Q579.3197,72.8008 579.6642,73.137 Q580.0087,73.4731 581.1044,73.8799 L582.1586,74.2783 Q583.6527,74.8262 584.3583,75.731 Q585.0639,76.6357 585.0639,78.0137 Q585.0639,79.8896 583.9557,80.8152 Q582.8476,81.7407 580.6063,81.7407 Q579.685,81.7407 578.7594,81.5208 Q577.8339,81.3008 576.9706,80.8691 L576.9706,78.3374 Q577.9501,79.0347 578.8673,79.375 Q579.7846,79.7153 580.6811,79.7153 Q581.5858,79.7153 582.0839,79.3044 Q582.5819,78.8936 582.5819,78.1548 Q582.5819,77.5986 582.2499,77.1794 Q581.9179,76.7603 581.287,76.5195 Z "/><text fill="#000000" font-family="sans-serif" font-size="12" lengthAdjust="spacingAndGlyphs" textLength="73" x="596.15" y="79.5352">BlockParams</text><line style="stroke: #A80036; stroke-width: 1.5;" x1="561" x2="677" y1="91" y2="91"/><ellipse cx="571" cy="102" fill="none" rx="3" ry="3" style="stroke: #038048; stroke-width: 1.0;"/><text fill="#000000" font-family="sans-serif" font-size="11" lengthAdjust="spacingAndGlyphs" textLength="81" x="580" y="105.6348">MaxBytes int64</text><ellipse cx="571" cy="114.9551" fill="none" rx="3" ry="3" style="stroke: #038048; stroke-width: 1.0;"/><text fill="#000000" font-family="sans-serif" font-size="11" lengthAdjust="spacingAndGlyphs" textLength="73" x="580" y="118.5898">MaxGas int64</text><ellipse cx="571" cy="127.9102" fill="none" rx="3" ry="3" style="stroke: #038048; stroke-width: 1.0;"/><text fill="#000000" font-family="sans-serif" font-size="11" lengthAdjust="spacingAndGlyphs" textLength="92" x="580" y="131.5449">TimeIotaMs int64</text><line style="stroke: #A80036; stroke-width: 1.5;" x1="561" x2="677" y1="137.8652" y2="137.8652"/><!--MD5=[f66f3dcedb24a9b33eaba21bdd8d6185]
class params.EvidenceParams--><rect fill="#FEFECE" filter="url(#f7c04rgjvcxml)" height="73.9102" id="params.EvidenceParams" style="stroke: #A80036; stroke-width: 1.5;" width="192" x="333" y="65.5"/><ellipse cx="377.75" cy="81.5" fill="#7FFFD4" rx="11" ry="11" style="stroke: #A80036; stroke-width: 1.0;"/><path d="M376.9834,82.563 Q375.1323,81.8574 374.4766,81.0813 Q373.8208,80.3052 373.8208,78.9937 Q373.8208,77.3086 374.8999,76.3457 Q375.979,75.3828 377.8633,75.3828 Q378.7183,75.3828 379.5732,75.5779 Q380.4282,75.7729 381.2666,76.1548 L381.2666,78.5454 Q380.478,77.9893 379.6646,77.6987 Q378.8511,77.4082 378.0542,77.4082 Q377.166,77.4082 376.6929,77.7651 Q376.2197,78.1221 376.2197,78.7861 Q376.2197,79.3008 376.5642,79.637 Q376.9087,79.9731 378.0044,80.3799 L379.0586,80.7783 Q380.5527,81.3262 381.2583,82.231 Q381.9639,83.1357 381.9639,84.5137 Q381.9639,86.3896 380.8557,87.3152 Q379.7476,88.2407 377.5063,88.2407 Q376.585,88.2407 375.6594,88.0208 Q374.7339,87.8008 373.8706,87.3691 L373.8706,84.8374 Q374.8501,85.5347 375.7673,85.875 Q376.6846,86.2153 377.5811,86.2153 Q378.4858,86.2153 378.9839,85.8044 Q379.4819,85.3936 379.4819,84.6548 Q379.4819,84.0986 379.1499,83.6794 Q378.8179,83.2603 378.187,83.0195 Z "/><text fill="#000000" font-family="sans-serif" font-size="12" lengthAdjust="spacingAndGlyphs" textLength="94" x="398.25" y="86.0352">EvidenceParams</text><line style="stroke: #A80036; stroke-width: 1.5;" x1="334" x2="524" y1="97.5" y2="97.5"/><ellipse cx="344" cy="108.5" fill="none" rx="3" ry="3" style="stroke: #038048; stroke-width: 1.0;"/><text fill="#000000" font-family="sans-serif" font-size="11" lengthAdjust="spacingAndGlyphs" textLength="133" x="353" y="112.1348">MaxAgeNumBlocks int64</text><ellipse cx="344" cy="121.4551" fill="none" rx="3" ry="3" style="stroke: #038048; stroke-width: 1.0;"/><text fill="#000000" font-family="sans-serif" font-size="11" lengthAdjust="spacingAndGlyphs" textLength="166" x="353" y="125.0898">MaxAgeDuration time.Duration</text><line style="stroke: #A80036; stroke-width: 1.5;" x1="334" x2="524" y1="131.4102" y2="131.4102"/><!--MD5=[20b13a7ec6431a15e840a93b999f8cf5]
class params.ValidatorParams--><rect fill="#FEFECE" filter="url(#f7c04rgjvcxml)" height="73.9102" id="params.ValidatorParams" style="stroke: #A80036; stroke-width: 1.5;" width="260" x="38" y="65.5"/><ellipse cx="116.25" cy="81.5" fill="#7FFFD4" rx="11" ry="11" style="stroke: #A80036; stroke-width: 1.0;"/><path d="M115.4834,82.563 Q113.6323,81.8574 112.9766,81.0813 Q112.3208,80.3052 112.3208,78.9937 Q112.3208,77.3086 113.3999,76.3457 Q114.479,75.3828 116.3633,75.3828 Q117.2183,75.3828 118.0732,75.5779 Q118.9282,75.7729 119.7666,76.1548 L119.7666,78.5454 Q118.978,77.9893 118.1646,77.6987 Q117.3511,77.4082 116.5542,77.4082 Q115.666,77.4082 115.1929,77.7651 Q114.7197,78.1221 114.7197,78.7861 Q114.7197,79.3008 115.0642,79.637 Q115.4087,79.9731 116.5044,80.3799 L117.5586,80.7783 Q119.0527,81.3262 119.7583,82.231 Q120.4639,83.1357 120.4639,84.5137 Q120.4639,86.3896 119.3557,87.3152 Q118.2476,88.2407 116.0063,88.2407 Q115.085,88.2407 114.1594,88.0208 Q113.2339,87.8008 112.3706,87.3691 L112.3706,84.8374 Q113.3501,85.5347 114.2673,85.875 Q115.1846,86.2153 116.0811,86.2153 Q116.9858,86.2153 117.4839,85.8044 Q117.9819,85.3936 117.9819,84.6548 Q117.9819,84.0986 117.6499,83.6794 Q117.3179,83.2603 116.687,83.0195 Z "/><text fill="#000000" font-family="sans-serif" font-size="12" lengthAdjust="spacingAndGlyphs" textLength="95" x="136.75" y="86.0352">ValidatorParams</text><line style="stroke: #A80036; stroke-width: 1.5;" x1="39" x2="297" y1="97.5" y2="97.5"/><ellipse cx="49" cy="108.5" fill="none" rx="3" ry="3" style="stroke: #038048; stroke-width: 1.0;"/><text fill="#000000" font-family="sans-serif" font-size="11" lengthAdjust="spacingAndGlyphs" textLength="114" x="58" y="112.1348">PubKeyTypes []string</text><line style="stroke: #A80036; stroke-width: 1.5;" x1="39" x2="297" y1="118.4551" y2="118.4551"/><ellipse cx="49" cy="129.4551" fill="#84BE84" rx="3" ry="3" style="stroke: #038048; stroke-width: 1.0;"/><text fill="#000000" font-family="sans-serif" font-size="11" lengthAdjust="spacingAndGlyphs" textLength="234" x="58" y="133.0898">IsValidPubkeyType(pubkeyType string) bool</text><!--MD5=[f593708a05030337be18abfdc2649bf7]
reverse link params.BlockParams to params.ConsensusParams--><path d="M567.75,149.62 C548.57,166.89 526.35,186.89 505.38,205.75 " fill="none" id="params.BlockParams&lt;-params.ConsensusParams" style="stroke: #A80036; stroke-width: 1.0;"/><polygon fill="#A80036" points="571.55,146.21,562.1787,149.2396,567.8272,149.5477,567.5191,155.1962,571.55,146.21" style="stroke: #A80036; stroke-width: 1.0;"/><text fill="#000000" font-family="sans-serif" font-size="13" lengthAdjust="spacingAndGlyphs" textLength="34" x="477.5036" y="195.3842">Block</text><!--MD5=[bc82b1b777613d1cd23349408f5a10ea]
reverse link params.EvidenceParams to params.ConsensusParams--><path d="M429,144.83 C429,163.14 429,185.17 429,205.84 " fill="none" id="params.EvidenceParams&lt;-params.ConsensusParams" style="stroke: #A80036; stroke-width: 1.0;"/><polygon fill="#A80036" points="429,139.76,425,148.76,429,144.76,433,148.76,429,139.76" style="stroke: #A80036; stroke-width: 1.0;"/><text fill="#000000" font-family="sans-serif" font-size="13" lengthAdjust="spacingAndGlyphs" textLength="55" x="371.1641" y="195.4835">Evidence</text><!--MD5=[cda3dbad8ee187b93d52e5df05e6f41c]
reverse link params.ValidatorParams to params.ConsensusParams--><path d="M227.22,142.3 C255.9,161.09 291.21,184.23 324.24,205.86 " fill="none" id="params.ValidatorParams&lt;-params.ConsensusParams" style="stroke: #A80036; stroke-width: 1.0;"/><polygon fill="#A80036" points="223.03,139.56,228.3851,147.8257,227.2186,142.2905,232.7539,141.1239,223.03,139.56" style="stroke: #A80036; stroke-width: 1.0;"/><text fill="#000000" font-family="sans-serif" font-size="13" lengthAdjust="spacingAndGlyphs" textLength="56" x="253.7194" y="195.0254">Validator</text><!--MD5=[cdfe9e1e22c84c8c5e259894c09c073a]
@startuml
namespace params {
    class ConsensusParams << (S,Aquamarine) >> {
        + Block BlockParams
        + Evidence EvidenceParams
        + Validator ValidatorParams

        + Validate() error
        + Hash() []byte
        + Equals(params2 *ConsensusParams) bool
        + Update(params2 *types.ConsensusParams) ConsensusParams

    }

    class BlockParams << (S,Aquamarine) >> {
        + MaxBytes int64
        + MaxGas int64
        + TimeIotaMs int64

    }

    class EvidenceParams << (S,Aquamarine) >> {
        + MaxAgeNumBlocks int64
        + MaxAgeDuration time.Duration

    }

    class ValidatorParams << (S,Aquamarine) >> {
        + PubKeyTypes []string

        + IsValidPubkeyType(pubkeyType string) bool

    }
}

"params.BlockParams" <- - "Block" "params.ConsensusParams"
"params.EvidenceParams" <- - "Evidence" "params.ConsensusParams"
"params.ValidatorParams" <- - "Validator" "params.ConsensusParams"
@enduml

PlantUML version 1.2019.13(Wed Dec 11 01:18:29 CST 2019)
(GPL source distribution)
Java Runtime: Java(TM) SE Runtime Environment
JVM: Java HotSpot(TM) 64-Bit Server VM
Java Version: 13.0.1+9
Operating System: Mac OS X
Default Encoding: UTF-8
Language: en
Country: CN
--></g></svg>