<?xml version="1.0" encoding="UTF-8" standalone="no"?><svg xmlns="http://www.w3.org/2000/svg" xmlns:xlink="http://www.w3.org/1999/xlink" contentScriptType="application/ecmascript" contentStyleType="text/css" height="802px" preserveAspectRatio="none" style="width:959px;height:802px;" version="1.1" viewBox="0 0 959 802" width="959px" zoomAndPan="magnify"><defs><filter height="300%" id="f1v80bi7msvm70" width="300%" x="-1" y="-1"><feGaussianBlur result="blurOut" stdDeviation="2.0"/><feColorMatrix in="blurOut" result="blurOut2" type="matrix" values="0 0 0 0 0 0 0 0 0 0 0 0 0 0 0 0 0 0 .4 0"/><feOffset dx="4.0" dy="4.0" in="blurOut2" result="blurOut3"/><feBlend in="SourceGraphic" in2="blurOut3" mode="normal"/></filter></defs><g><rect fill="#FFFFFF" filter="url(#f1v80bi7msvm70)" height="214.8633" style="stroke: #A80036; stroke-width: 1.0;" width="10" x="133.5" y="69.7988"/><rect fill="#FFFFFF" filter="url(#f1v80bi7msvm70)" height="63.6211" style="stroke: #A80036; stroke-width: 1.0;" width="10" x="138.5" y="191.7305"/><rect fill="#FFFFFF" filter="url(#f1v80bi7msvm70)" height="29.3105" style="stroke: #A80036; stroke-width: 1.0;" width="10" x="349" y="284.6621"/><rect fill="#FFFFFF" filter="url(#f1v80bi7msvm70)" height="130.2422" style="stroke: #A80036; stroke-width: 1.0;" width="10" x="435" y="313.9727"/><rect fill="#FFFFFF" filter="url(#f1v80bi7msvm70)" height="204.5527" style="stroke: #A80036; stroke-width: 1.0;" width="10" x="440" y="473.5254"/><rect fill="#FFFFFF" filter="url(#f1v80bi7msvm70)" height="204.5527" style="stroke: #A80036; stroke-width: 1.0;" width="10" x="440" y="473.5254"/><rect fill="#FFFFFF" filter="url(#f1v80bi7msvm70)" height="167.2422" style="stroke: #A80036; stroke-width: 1.0;" width="10" x="445" y="510.8359"/><rect fill="#FFFFFF" filter="url(#f1v80bi7msvm70)" height="82.6211" style="stroke: #A80036; stroke-width: 1.0;" width="10" x="450" y="595.457"/><rect fill="#FFFFFF" filter="url(#f1v80bi7msvm70)" height="40.3105" style="stroke: #A80036; stroke-width: 1.0;" width="10" x="455" y="637.7676"/><rect fill="#FFFFFF" filter="url(#f1v80bi7msvm70)" height="29.3105" style="stroke: #A80036; stroke-width: 1.0;" width="10" x="571" y="385.5938"/><rect fill="#FFFFFF" filter="url(#f1v80bi7msvm70)" height="29.3105" style="stroke: #A80036; stroke-width: 1.0;" width="10" x="688.5" y="444.2148"/><line style="stroke: #A80036; stroke-width: 1.0; stroke-dasharray: 5.0,5.0;" x1="41" x2="41" y1="38.4883" y2="761.6992"/><line style="stroke: #A80036; stroke-width: 1.0; stroke-dasharray: 5.0,5.0;" x1="138" x2="138" y1="38.4883" y2="761.6992"/><line style="stroke: #A80036; stroke-width: 1.0; stroke-dasharray: 5.0,5.0;" x1="271" x2="271" y1="38.4883" y2="761.6992"/><line style="stroke: #A80036; stroke-width: 1.0; stroke-dasharray: 5.0,5.0;" x1="354" x2="354" y1="38.4883" y2="761.6992"/><line style="stroke: #A80036; stroke-width: 1.0; stroke-dasharray: 5.0,5.0;" x1="440" x2="440" y1="38.4883" y2="761.6992"/><line style="stroke: #A80036; stroke-width: 1.0; stroke-dasharray: 5.0,5.0;" x1="575.5" x2="575.5" y1="38.4883" y2="761.6992"/><line style="stroke: #A80036; stroke-width: 1.0; stroke-dasharray: 5.0,5.0;" x1="693.5" x2="693.5" y1="38.4883" y2="761.6992"/><line style="stroke: #A80036; stroke-width: 1.0; stroke-dasharray: 5.0,5.0;" x1="815.5" x2="815.5" y1="38.4883" y2="761.6992"/><line style="stroke: #A80036; stroke-width: 1.0; stroke-dasharray: 5.0,5.0;" x1="928.5" x2="928.5" y1="38.4883" y2="761.6992"/><rect fill="#FEFECE" filter="url(#f1v80bi7msvm70)" height="30.4883" style="stroke: #A80036; stroke-width: 1.5;" width="62" x="8" y="3"/><text fill="#000000" font-family="sans-serif" font-size="14" lengthAdjust="spacingAndGlyphs" textLength="48" x="15" y="23.5352">Service</text><rect fill="#FEFECE" filter="url(#f1v80bi7msvm70)" height="30.4883" style="stroke: #A80036; stroke-width: 1.5;" width="62" x="8" y="760.6992"/><text fill="#000000" font-family="sans-serif" font-size="14" lengthAdjust="spacingAndGlyphs" textLength="48" x="15" y="781.2344">Service</text><rect fill="#FEFECE" filter="url(#f1v80bi7msvm70)" height="30.4883" style="stroke: #A80036; stroke-width: 1.5;" width="105" x="84" y="3"/><text fill="#000000" font-family="sans-serif" font-size="14" lengthAdjust="spacingAndGlyphs" textLength="91" x="91" y="23.5352">MConnection</text><rect fill="#FEFECE" filter="url(#f1v80bi7msvm70)" height="30.4883" style="stroke: #A80036; stroke-width: 1.5;" width="105" x="84" y="760.6992"/><text fill="#000000" font-family="sans-serif" font-size="14" lengthAdjust="spacingAndGlyphs" textLength="91" x="91" y="781.2344">MConnection</text><rect fill="#FEFECE" filter="url(#f1v80bi7msvm70)" height="30.4883" style="stroke: #A80036; stroke-width: 1.5;" width="71" x="234" y="3"/><text fill="#000000" font-family="sans-serif" font-size="14" lengthAdjust="spacingAndGlyphs" textLength="57" x="241" y="23.5352">Channel</text><rect fill="#FEFECE" filter="url(#f1v80bi7msvm70)" height="30.4883" style="stroke: #A80036; stroke-width: 1.5;" width="71" x="234" y="760.6992"/><text fill="#000000" font-family="sans-serif" font-size="14" lengthAdjust="spacingAndGlyphs" textLength="57" x="241" y="781.2344">Channel</text><rect fill="#FEFECE" filter="url(#f1v80bi7msvm70)" height="30.4883" style="stroke: #A80036; stroke-width: 1.5;" width="66" x="319" y="3"/><text fill="#000000" font-family="sans-serif" font-size="14" lengthAdjust="spacingAndGlyphs" textLength="52" x="326" y="23.5352">Reactor</text><rect fill="#FEFECE" filter="url(#f1v80bi7msvm70)" height="30.4883" style="stroke: #A80036; stroke-width: 1.5;" width="66" x="319" y="760.6992"/><text fill="#000000" font-family="sans-serif" font-size="14" lengthAdjust="spacingAndGlyphs" textLength="52" x="326" y="781.2344">Reactor</text><rect fill="#FEFECE" filter="url(#f1v80bi7msvm70)" height="30.4883" style="stroke: #A80036; stroke-width: 1.5;" width="78" x="399" y="3"/><text fill="#000000" font-family="sans-serif" font-size="14" lengthAdjust="spacingAndGlyphs" textLength="64" x="406" y="23.5352">Mempool</text><rect fill="#FEFECE" filter="url(#f1v80bi7msvm70)" height="30.4883" style="stroke: #A80036; stroke-width: 1.5;" width="78" x="399" y="760.6992"/><text fill="#000000" font-family="sans-serif" font-size="14" lengthAdjust="spacingAndGlyphs" textLength="64" x="406" y="781.2344">Mempool</text><rect fill="#FEFECE" filter="url(#f1v80bi7msvm70)" height="30.4883" style="stroke: #A80036; stroke-width: 1.5;" width="143" x="502.5" y="3"/><text fill="#000000" font-family="sans-serif" font-size="14" lengthAdjust="spacingAndGlyphs" textLength="129" x="509.5" y="23.5352">AppConnMempool</text><rect fill="#FEFECE" filter="url(#f1v80bi7msvm70)" height="30.4883" style="stroke: #A80036; stroke-width: 1.5;" width="143" x="502.5" y="760.6992"/><text fill="#000000" font-family="sans-serif" font-size="14" lengthAdjust="spacingAndGlyphs" textLength="129" x="509.5" y="781.2344">AppConnMempool</text><rect fill="#FEFECE" filter="url(#f1v80bi7msvm70)" height="30.4883" style="stroke: #A80036; stroke-width: 1.5;" width="64" x="659.5" y="3"/><text fill="#000000" font-family="sans-serif" font-size="14" lengthAdjust="spacingAndGlyphs" textLength="50" x="666.5" y="23.5352">ReqRes</text><rect fill="#FEFECE" filter="url(#f1v80bi7msvm70)" height="30.4883" style="stroke: #A80036; stroke-width: 1.5;" width="64" x="659.5" y="760.6992"/><text fill="#000000" font-family="sans-serif" font-size="14" lengthAdjust="spacingAndGlyphs" textLength="50" x="666.5" y="781.2344">ReqRes</text><rect fill="#FEFECE" filter="url(#f1v80bi7msvm70)" height="30.4883" style="stroke: #A80036; stroke-width: 1.5;" width="153" x="737.5" y="3"/><text fill="#000000" font-family="sans-serif" font-size="14" lengthAdjust="spacingAndGlyphs" textLength="139" x="744.5" y="23.5352">broadcastTxRoutine</text><rect fill="#FEFECE" filter="url(#f1v80bi7msvm70)" height="30.4883" style="stroke: #A80036; stroke-width: 1.5;" width="153" x="737.5" y="760.6992"/><text fill="#000000" font-family="sans-serif" font-size="14" lengthAdjust="spacingAndGlyphs" textLength="139" x="744.5" y="781.2344">broadcastTxRoutine</text><rect fill="#FEFECE" filter="url(#f1v80bi7msvm70)" height="30.4883" style="stroke: #A80036; stroke-width: 1.5;" width="44" x="904.5" y="3"/><text fill="#000000" font-family="sans-serif" font-size="14" lengthAdjust="spacingAndGlyphs" textLength="30" x="911.5" y="23.5352">Peer</text><rect fill="#FEFECE" filter="url(#f1v80bi7msvm70)" height="30.4883" style="stroke: #A80036; stroke-width: 1.5;" width="44" x="904.5" y="760.6992"/><text fill="#000000" font-family="sans-serif" font-size="14" lengthAdjust="spacingAndGlyphs" textLength="30" x="911.5" y="781.2344">Peer</text><rect fill="#FFFFFF" filter="url(#f1v80bi7msvm70)" height="214.8633" style="stroke: #A80036; stroke-width: 1.0;" width="10" x="133.5" y="69.7988"/><rect fill="#FFFFFF" filter="url(#f1v80bi7msvm70)" height="63.6211" style="stroke: #A80036; stroke-width: 1.0;" width="10" x="138.5" y="191.7305"/><rect fill="#FFFFFF" filter="url(#f1v80bi7msvm70)" height="29.3105" style="stroke: #A80036; stroke-width: 1.0;" width="10" x="349" y="284.6621"/><rect fill="#FFFFFF" filter="url(#f1v80bi7msvm70)" height="130.2422" style="stroke: #A80036; stroke-width: 1.0;" width="10" x="435" y="313.9727"/><rect fill="#FFFFFF" filter="url(#f1v80bi7msvm70)" height="204.5527" style="stroke: #A80036; stroke-width: 1.0;" width="10" x="440" y="473.5254"/><rect fill="#FFFFFF" filter="url(#f1v80bi7msvm70)" height="204.5527" style="stroke: #A80036; stroke-width: 1.0;" width="10" x="440" y="473.5254"/><rect fill="#FFFFFF" filter="url(#f1v80bi7msvm70)" height="167.2422" style="stroke: #A80036; stroke-width: 1.0;" width="10" x="445" y="510.8359"/><rect fill="#FFFFFF" filter="url(#f1v80bi7msvm70)" height="82.6211" style="stroke: #A80036; stroke-width: 1.0;" width="10" x="450" y="595.457"/><rect fill="#FFFFFF" filter="url(#f1v80bi7msvm70)" height="40.3105" style="stroke: #A80036; stroke-width: 1.0;" width="10" x="455" y="637.7676"/><rect fill="#FFFFFF" filter="url(#f1v80bi7msvm70)" height="29.3105" style="stroke: #A80036; stroke-width: 1.0;" width="10" x="571" y="385.5938"/><rect fill="#FFFFFF" filter="url(#f1v80bi7msvm70)" height="29.3105" style="stroke: #A80036; stroke-width: 1.0;" width="10" x="688.5" y="444.2148"/><polygon fill="#A80036" points="121.5,65.7988,131.5,69.7988,121.5,73.7988,125.5,69.7988" style="stroke: #A80036; stroke-width: 1.0;"/><line style="stroke: #A80036; stroke-width: 1.0;" x1="41" x2="127.5" y1="69.7988" y2="69.7988"/><text fill="#000000" font-family="sans-serif" font-size="13" lengthAdjust="spacingAndGlyphs" textLength="29" x="48" y="65.0566">Start</text><line style="stroke: #A80036; stroke-width: 1.0;" x1="143.5" x2="185.5" y1="99.1094" y2="99.1094"/><line style="stroke: #A80036; stroke-width: 1.0;" x1="185.5" x2="185.5" y1="99.1094" y2="112.1094"/><line style="stroke: #A80036; stroke-width: 1.0;" x1="144.5" x2="185.5" y1="112.1094" y2="112.1094"/><polygon fill="#A80036" points="154.5,108.1094,144.5,112.1094,154.5,116.1094,150.5,112.1094" style="stroke: #A80036; stroke-width: 1.0;"/><text fill="#000000" font-family="sans-serif" font-size="13" lengthAdjust="spacingAndGlyphs" textLength="47" x="150.5" y="94.3672">OnStart</text><line style="stroke: #A80036; stroke-width: 1.0;" x1="143.5" x2="185.5" y1="141.4199" y2="141.4199"/><line style="stroke: #A80036; stroke-width: 1.0;" x1="185.5" x2="185.5" y1="141.4199" y2="154.4199"/><line style="stroke: #A80036; stroke-width: 1.0;" x1="144.5" x2="185.5" y1="154.4199" y2="154.4199"/><polygon fill="#A80036" points="154.5,150.4199,144.5,154.4199,154.5,158.4199,150.5,154.4199" style="stroke: #A80036; stroke-width: 1.0;"/><text fill="#000000" font-family="sans-serif" font-size="13" lengthAdjust="spacingAndGlyphs" textLength="98" x="150.5" y="136.6777">go sendRoutine</text><line style="stroke: #A80036; stroke-width: 1.0;" x1="143.5" x2="190.5" y1="178.7305" y2="178.7305"/><line style="stroke: #A80036; stroke-width: 1.0;" x1="190.5" x2="190.5" y1="178.7305" y2="191.7305"/><line style="stroke: #A80036; stroke-width: 1.0;" x1="149.5" x2="190.5" y1="191.7305" y2="191.7305"/><polygon fill="#A80036" points="159.5,187.7305,149.5,191.7305,159.5,195.7305,155.5,191.7305" style="stroke: #A80036; stroke-width: 1.0;"/><text fill="#000000" font-family="sans-serif" font-size="13" lengthAdjust="spacingAndGlyphs" textLength="94" x="155.5" y="173.9883">go recvRoutine</text><polygon fill="#A80036" points="259.5,222.041,269.5,226.041,259.5,230.041,263.5,226.041" style="stroke: #A80036; stroke-width: 1.0;"/><line style="stroke: #A80036; stroke-width: 1.0;" x1="148.5" x2="265.5" y1="226.041" y2="226.041"/><text fill="#000000" font-family="sans-serif" font-size="13" lengthAdjust="spacingAndGlyphs" textLength="93" x="155.5" y="221.2988">recvPacketMsg</text><polygon fill="#A80036" points="154.5,251.3516,144.5,255.3516,154.5,259.3516,150.5,255.3516" style="stroke: #A80036; stroke-width: 1.0;"/><line style="stroke: #A80036; stroke-width: 1.0; stroke-dasharray: 2.0,2.0;" x1="148.5" x2="270.5" y1="255.3516" y2="255.3516"/><text fill="#000000" font-family="sans-serif" font-size="13" lengthAdjust="spacingAndGlyphs" textLength="99" x="160.5" y="250.6094">"complete msg"</text><polygon fill="#A80036" points="337,280.6621,347,284.6621,337,288.6621,341,284.6621" style="stroke: #A80036; stroke-width: 1.0;"/><line style="stroke: #A80036; stroke-width: 1.0;" x1="138.5" x2="343" y1="284.6621" y2="284.6621"/><text fill="#000000" font-family="sans-serif" font-size="13" lengthAdjust="spacingAndGlyphs" textLength="150" x="145.5" y="279.9199">onReceive "call" Receive</text><polygon fill="#A80036" points="423,309.9727,433,313.9727,423,317.9727,427,313.9727" style="stroke: #A80036; stroke-width: 1.0;"/><line style="stroke: #A80036; stroke-width: 1.0;" x1="354" x2="429" y1="313.9727" y2="313.9727"/><text fill="#000000" font-family="sans-serif" font-size="13" lengthAdjust="spacingAndGlyphs" textLength="55" x="361" y="309.2305">CheckTx</text><line style="stroke: #A80036; stroke-width: 1.0;" x1="445" x2="487" y1="343.2832" y2="343.2832"/><line style="stroke: #A80036; stroke-width: 1.0;" x1="487" x2="487" y1="343.2832" y2="356.2832"/><line style="stroke: #A80036; stroke-width: 1.0;" x1="446" x2="487" y1="356.2832" y2="356.2832"/><polygon fill="#A80036" points="456,352.2832,446,356.2832,456,360.2832,452,356.2832" style="stroke: #A80036; stroke-width: 1.0;"/><text fill="#000000" font-family="sans-serif" font-size="13" lengthAdjust="spacingAndGlyphs" textLength="59" x="452" y="338.541">preCheck</text><polygon fill="#A80036" points="559,381.5938,569,385.5938,559,389.5938,563,385.5938" style="stroke: #A80036; stroke-width: 1.0;"/><line style="stroke: #A80036; stroke-width: 1.0;" x1="445" x2="565" y1="385.5938" y2="385.5938"/><text fill="#000000" font-family="sans-serif" font-size="13" lengthAdjust="spacingAndGlyphs" textLength="93" x="452" y="380.8516">CheckTxAsync</text><polygon fill="#A80036" points="456,410.9043,446,414.9043,456,418.9043,452,414.9043" style="stroke: #A80036; stroke-width: 1.0;"/><line style="stroke: #A80036; stroke-width: 1.0; stroke-dasharray: 2.0,2.0;" x1="450" x2="575" y1="414.9043" y2="414.9043"/><text fill="#000000" font-family="sans-serif" font-size="13" lengthAdjust="spacingAndGlyphs" textLength="84" x="462" y="410.1621">return resReq</text><polygon fill="#A80036" points="676.5,440.2148,686.5,444.2148,676.5,448.2148,680.5,444.2148" style="stroke: #A80036; stroke-width: 1.0;"/><line style="stroke: #A80036; stroke-width: 1.0;" x1="440" x2="682.5" y1="444.2148" y2="444.2148"/><text fill="#000000" font-family="sans-serif" font-size="13" lengthAdjust="spacingAndGlyphs" textLength="156" x="447" y="439.4727">SetCallabck(reqResCb{..})</text><polygon fill="#A80036" points="461,469.5254,451,473.5254,461,477.5254,457,473.5254" style="stroke: #A80036; stroke-width: 1.0;"/><line style="stroke: #A80036; stroke-width: 1.0;" x1="455" x2="692.5" y1="473.5254" y2="473.5254"/><text fill="#000000" font-family="sans-serif" font-size="13" lengthAdjust="spacingAndGlyphs" textLength="59" x="467" y="468.7832">reqResCb</text><line style="stroke: #A80036; stroke-width: 1.0;" x1="450" x2="497" y1="497.8359" y2="497.8359"/><line style="stroke: #A80036; stroke-width: 1.0;" x1="497" x2="497" y1="497.8359" y2="510.8359"/><line style="stroke: #A80036; stroke-width: 1.0;" x1="456" x2="497" y1="510.8359" y2="510.8359"/><polygon fill="#A80036" points="466,506.8359,456,510.8359,466,514.8359,462,510.8359" style="stroke: #A80036; stroke-width: 1.0;"/><text fill="#000000" font-family="sans-serif" font-size="13" lengthAdjust="spacingAndGlyphs" textLength="95" x="462" y="493.0938">resCbFirstTime</text><line style="stroke: #A80036; stroke-width: 1.0;" x1="455" x2="497" y1="545.1465" y2="545.1465"/><line style="stroke: #A80036; stroke-width: 1.0;" x1="497" x2="497" y1="545.1465" y2="558.1465"/><line style="stroke: #A80036; stroke-width: 1.0;" x1="456" x2="497" y1="558.1465" y2="558.1465"/><polygon fill="#A80036" points="466,554.1465,456,558.1465,466,562.1465,462,558.1465" style="stroke: #A80036; stroke-width: 1.0;"/><text fill="#000000" font-family="sans-serif" font-size="13" lengthAdjust="spacingAndGlyphs" textLength="67" x="462" y="540.4043">postCheck</text><line style="stroke: #A80036; stroke-width: 1.0;" x1="455" x2="502" y1="582.457" y2="582.457"/><line style="stroke: #A80036; stroke-width: 1.0;" x1="502" x2="502" y1="582.457" y2="595.457"/><line style="stroke: #A80036; stroke-width: 1.0;" x1="461" x2="502" y1="595.457" y2="595.457"/><polygon fill="#A80036" points="471,591.457,461,595.457,471,599.457,467,595.457" style="stroke: #A80036; stroke-width: 1.0;"/><text fill="#000000" font-family="sans-serif" font-size="13" lengthAdjust="spacingAndGlyphs" textLength="39" x="467" y="577.7148">addTx</text><line style="stroke: #A80036; stroke-width: 1.0;" x1="460" x2="507" y1="624.7676" y2="624.7676"/><line style="stroke: #A80036; stroke-width: 1.0;" x1="507" x2="507" y1="624.7676" y2="637.7676"/><line style="stroke: #A80036; stroke-width: 1.0;" x1="466" x2="507" y1="637.7676" y2="637.7676"/><polygon fill="#A80036" points="476,633.7676,466,637.7676,476,641.7676,472,637.7676" style="stroke: #A80036; stroke-width: 1.0;"/><text fill="#000000" font-family="sans-serif" font-size="13" lengthAdjust="spacingAndGlyphs" textLength="59" x="472" y="620.0254">PushBack</text><line style="stroke: #A80036; stroke-width: 1.0;" x1="465" x2="507" y1="677.0781" y2="677.0781"/><line style="stroke: #A80036; stroke-width: 1.0;" x1="507" x2="507" y1="677.0781" y2="690.0781"/><line style="stroke: #A80036; stroke-width: 1.0;" x1="460" x2="507" y1="690.0781" y2="690.0781"/><polygon fill="#A80036" points="470,686.0781,460,690.0781,470,694.0781,466,690.0781" style="stroke: #A80036; stroke-width: 1.0;"/><text fill="#000000" font-family="sans-serif" font-size="13" lengthAdjust="spacingAndGlyphs" textLength="92" x="472" y="672.3359">close(l.waitCh)</text><polygon fill="#A80036" points="804,710.3887,814,714.3887,804,718.3887,808,714.3887" style="stroke: #A80036; stroke-width: 1.0;"/><line style="stroke: #A80036; stroke-width: 1.0; stroke-dasharray: 2.0,2.0;" x1="440" x2="810" y1="714.3887" y2="714.3887"/><text fill="#000000" font-family="sans-serif" font-size="13" lengthAdjust="spacingAndGlyphs" textLength="52" x="447" y="709.6465">"trigger"</text><polygon fill="#A80036" points="916.5,739.6992,926.5,743.6992,916.5,747.6992,920.5,743.6992" style="stroke: #A80036; stroke-width: 1.0;"/><line style="stroke: #A80036; stroke-width: 1.0;" x1="816" x2="922.5" y1="743.6992" y2="743.6992"/><text fill="#000000" font-family="sans-serif" font-size="13" lengthAdjust="spacingAndGlyphs" textLength="30" x="823" y="738.957">Send</text><!--MD5=[4f7cacafc7a0a3c604fa289f58c5244e]
@startuml

Service -> MConnection: Start
activate MConnection
	MConnection -> MConnection: OnStart
	MConnection -> MConnection: go sendRoutine
	MConnection -> MConnection: go recvRoutine
	activate MConnection
		MConnection -> Channel: recvPacketMsg
		Channel - -> MConnection: "complete msg"
	deactivate MConnection
	MConnection -> Reactor: onReceive "call" Receive
deactivate MConnection

activate Reactor
	Reactor -> Mempool: CheckTx
deactivate Reactor

activate Mempool
	Mempool -> Mempool: preCheck
	Mempool -> AppConnMempool: CheckTxAsync
	activate AppConnMempool
		AppConnMempool - -> Mempool: return resReq
	deactivate AppConnMempool
	Mempool -> ReqRes: SetCallabck(reqResCb{..})
deactivate Mempool

activate ReqRes
	ReqRes -> Mempool: reqResCb
deactivate ReqRes

activate Mempool
	activate Mempool
		Mempool -> Mempool: resCbFirstTime
		activate Mempool
			Mempool -> Mempool: postCheck
			Mempool -> Mempool: addTx
			activate Mempool
				Mempool -> Mempool: PushBack
				activate Mempool
					Mempool -> Mempool: close(l.waitCh) 
				deactivate Mempool
			deactivate Mempool
		deactivate Mempool
	deactivate Mempool
deactivate Mempool

Mempool - -> broadcastTxRoutine: "trigger"
broadcastTxRoutine -> Peer: Send
@enduml

PlantUML version 1.2019.13(Wed Dec 11 01:18:29 CST 2019)
(GPL source distribution)
Java Runtime: Java(TM) SE Runtime Environment
JVM: Java HotSpot(TM) 64-Bit Server VM
Java Version: 13.0.1+9
Operating System: Mac OS X
Default Encoding: UTF-8
Language: en
Country: CN
--></g></svg>